<?xml version="1.0" encoding="utf-8"?>
<!-- Generator: Adobe Illustrator 24.3.0, SVG Export Plug-In . SVG Version: 6.00 Build 0)  -->
<svg version="1.1" id="Layer_1" xmlns="http://www.w3.org/2000/svg" xmlns:xlink="http://www.w3.org/1999/xlink" x="0px" y="0px"
	 viewBox="0 0 600 170" style="enable-background:new 0 0 600 170;" xml:space="preserve">
<style type="text/css">
	.st0{fill:#F15D22;}
	.st1{fill:#06357A;}
</style>
<g>
	<g>
		<g>
			<rect x="135.79" y="23.01" class="st0" width="28.11" height="28.11"/>
		</g>
		<rect x="400.9" y="23.01" class="st0" width="28.11" height="28.11"/>
		<rect x="521.86" y="23.01" class="st0" width="28.12" height="28.11"/>
	</g>
	<path class="st1" d="M53.18,122.66c6.55,2.81,16.21,5.62,26.35,5.62c5.77,0,11.38-0.95,11.38-6.56c0-13.72-39.91-4.05-39.91-33.36
		c0-18.72,18.39-26.35,34.61-26.35c9.67,0,19.49,1.09,28.54,4.68l-2.18,19.48c-5.93-3.58-14.81-5.46-21.83-5.46
		c-6.07,0-12.94,1.09-12.94,5.61c0,12.63,41.79,2.66,41.79,33.52c0,21.68-19.49,27.13-37.89,27.13c-12.63,0-21.21-1.25-29.47-3.9
		L53.18,122.66z"/>
	<path class="st1" d="M135.98,63.88h28.06v81.24h-28.06V63.88z"/>
	<path class="st1" d="M182.35,45.64l27.59-8.57v26.81h19.65v19.65h-19.65v29.94c0,9.83,2.35,14.82,11.23,14.82
		c2.81,0,5.77-0.63,8.58-1.11l0.93,18.24c-5.3,0.63-10.6,1.57-17.62,1.57c-25.11,0-31.18-11.07-31.18-30.4L182.35,45.64z"/>
	<path class="st1" d="M242.83,63.88h29.31l13.1,58.47h0.3l14.03-58.47h33.68l13.72,58.47h0.31l12.78-58.47h27.14l-24.79,81.24
		h-32.58l-13.72-58.78h-0.32l-15.43,58.78h-32.59L242.83,63.88z"/>
	<path class="st1" d="M400.63,63.88h28.06v81.24h-28.06V63.88z"/>
	<path class="st1" d="M459.26,83.53h-16.54V63.88h17V58.9c0-24.17,11.38-32.59,33.83-32.59c6.07,0,10.75,0.93,14.34,1.56
		l-1.72,19.34c-2.33-0.78-4.67-1.25-8.88-1.25c-7.18,0-9.98,5-9.98,12.95v4.98h19.95v19.65h-19.95v61.59h-28.07V83.53z
		 M521.93,63.88H550v81.24h-28.07V63.88z"/>
</g>
</svg>
