<?xml version="1.0" encoding="utf-8"?>
<!-- Generator: Adobe Illustrator 24.3.0, SVG Export Plug-In . SVG Version: 6.00 Build 0)  -->
<svg version="1.1" id="Layer_1" xmlns="http://www.w3.org/2000/svg" xmlns:xlink="http://www.w3.org/1999/xlink" x="0px" y="0px"
	 viewBox="0 0 300 300" style="enable-background:new 0 0 300 300;" xml:space="preserve">
<style type="text/css">
	.st0{opacity:0.4;}
	.st1{opacity:0.3;}
	.st2{fill:#163072;}
	.st3{opacity:0.2;fill:#163072;}
</style>
<g class="st0">
	<g class="st1">
		<g>
			<path class="st2" d="M269.65,115.44c0.02-6.19-2.26-11.89-6.42-16.05c-4.17-4.17-9.87-6.45-16.05-6.42
				c-0.99,0-1.79,0.81-1.79,1.8c0,0.99,0.81,1.79,1.8,1.79c5.22-0.02,10.02,1.89,13.5,5.37c3.48,3.48,5.39,8.28,5.37,13.5
				c0,0.5,0.2,0.95,0.53,1.28c0.32,0.32,0.77,0.52,1.26,0.53C268.84,117.23,269.65,116.43,269.65,115.44z"/>
		</g>
	</g>
	<g class="st1">
		<g>
			<path class="st2" d="M259.32,115.62c-0.02-3.29-1.37-6.67-3.52-8.83c0,0,0,0,0,0l-0.09-0.09c0,0,0,0,0,0
				c-2.16-2.16-5.54-3.51-8.83-3.52c-0.99,0-1.8,0.79-1.8,1.79c0,0.5,0.2,0.95,0.53,1.28c0.32,0.32,0.77,0.52,1.26,0.53
				c2.34,0.01,4.81,0.98,6.3,2.47c0,0,0,0,0,0l0.09,0.09c0,0,0,0,0,0c1.49,1.49,2.46,3.97,2.47,6.3c0,0.99,0.81,1.79,1.8,1.79
				C258.52,117.42,259.32,116.61,259.32,115.62z"/>
		</g>
	</g>
</g>
<path class="st2" d="M240.07,210.12h-14.06v-8.94V201v-33.76l11.95-34.14h2.11c5.17,0,9.37-4.2,9.37-9.37c0-5.17-4.2-9.37-9.37-9.37
	h-21.8V89.92h8.05c3.76,0,6.83-3.06,6.83-6.83v-7.13c0-3.76-3.06-6.83-6.83-6.83h-22.21c-3.76,0-6.83,3.06-6.83,6.83v7.13
	c0,3.76,3.06,6.83,6.83,6.83h8.05v24.45h-63.97V89.92h8.05c3.76,0,6.83-3.06,6.83-6.83v-7.13c0-3.76-3.06-6.83-6.83-6.83h-22.21
	c-3.76,0-6.83,3.06-6.83,6.83v7.13c0,3.76,3.06,6.83,6.83,6.83h8.05v24.45H130.6h-3.44H78.09V89.92h8.05c3.76,0,6.83-3.06,6.83-6.83
	v-7.13c0-3.76-3.06-6.83-6.83-6.83H63.93c-3.76,0-6.83,3.06-6.83,6.83v7.13c0,3.76,3.06,6.83,6.83,6.83h8.05v24.45h-21.8
	c-5.17,0-9.37,4.2-9.37,9.37c0,5.17,4.2,9.37,9.37,9.37h2.11l11.95,34.14v42.88H50.18c-5.17,0-9.37,4.2-9.37,9.37
	c0,5.17,4.2,9.37,9.37,9.37h189.89c5.17,0,9.37-4.2,9.37-9.37C249.44,214.33,245.24,210.12,240.07,210.12z M182.32,178.75h-74.39
	c-1.69,0-3.06,1.37-3.06,3.06v28.32H70.35v-40.34H219.9V201v0.19v8.94h-34.52V181.8C185.38,180.11,184.01,178.75,182.32,178.75z
	 M170.1,190.97h-49.94c-1.69,0-3.06,1.37-3.06,3.06v16.1h-6.11v-25.26h68.28v25.26h-6.11v-16.1
	C173.15,192.34,171.79,190.97,170.1,190.97z M167.04,197.08v13.04h-43.83v-13.04H167.04z M95.81,163.67l-8.23-30.56h25.4l4.04,30.56
	H95.81z M119.13,133.11h22.94v30.56h-18.89L119.13,133.11z M148.18,163.67v-30.56h22.94l-4.04,30.56H148.18z M173.24,163.67
	l4.04-30.56h25.4l-8.23,30.56H173.24z M220.79,163.67h-20.01l8.23-30.56h22.47L220.79,163.67z M204.11,83.8
	c-0.39,0-0.71-0.32-0.71-0.71v-7.13c0-0.39,0.32-0.71,0.71-0.71h22.21c0.39,0,0.71,0.32,0.71,0.71v7.13c0,0.39-0.32,0.71-0.71,0.71
	H204.11z M134.02,83.8c-0.39,0-0.71-0.32-0.71-0.71v-7.13c0-0.39,0.32-0.71,0.71-0.71h22.21c0.39,0,0.71,0.32,0.71,0.71v7.13
	c0,0.39-0.32,0.71-0.71,0.71H134.02z M63.93,83.8c-0.39,0-0.71-0.32-0.71-0.71v-7.13c0-0.39,0.32-0.71,0.71-0.71h22.21
	c0.39,0,0.71,0.32,0.71,0.71v7.13c0,0.39-0.32,0.71-0.71,0.71H63.93z M50.18,127c-1.8,0-3.26-1.46-3.26-3.26
	c0-1.8,1.46-3.26,3.26-3.26h76.98h3.44h109.47c1.8,0,3.26,1.46,3.26,3.26c0,1.8-1.46,3.26-3.26,3.26H50.18z M58.77,133.11h22.47
	l8.23,30.56H69.46L58.77,133.11z M240.07,222.75H50.18c-1.8,0-3.26-1.46-3.26-3.26c0-1.8,1.46-3.26,3.26-3.26h189.89
	c1.8,0,3.26,1.46,3.26,3.26C243.33,221.29,241.87,222.75,240.07,222.75z"/>
<path class="st3" d="M192.33,168.04c0,22.44,0,42.09,0,42.09h27.57v-44.71L192.33,168.04z"/>
<path class="st3" d="M231.48,128.74c0,0,13.9,3.58,13.9-5.01s-13.9-6.51-13.9-6.51l-99.37,0.19c16.55,0,16.55,9.58,16.55,9.58
	c0,1.28,0-0.96,0,1.75H231.48z"/>
</svg>
