<?xml version="1.0" encoding="utf-8"?>
<!-- Generator: Adobe Illustrator 24.3.0, SVG Export Plug-In . SVG Version: 6.00 Build 0)  -->
<svg version="1.1" id="Layer_1" xmlns="http://www.w3.org/2000/svg" xmlns:xlink="http://www.w3.org/1999/xlink" x="0px" y="0px"
	 viewBox="0 0 300 300" style="enable-background:new 0 0 300 300;" xml:space="preserve">
<style type="text/css">
	.st0{opacity:0.2;fill:#163072;}
	.st1{fill:#163072;}
	.st2{opacity:0.4;}
	.st3{opacity:0.3;}
</style>
<g>
	<path class="st0" d="M87.83,249.56l130.15-125.12c0,0,14.38-30.13-22.46-29.12h43.14c0,0,18.11,13.64,18.11,29.12
		c0,0-0.87,29.62-40.7,29.62h-7.28l-99.52,95.5H87.83z"/>
	<g>
		<path class="st1" d="M132.57,97.99c9.11,0,16.52-7.41,16.52-16.52s-7.41-16.52-16.52-16.52s-16.52,7.41-16.52,16.52
			S123.46,97.99,132.57,97.99z M132.57,73.2c4.56,0,8.26,3.71,8.26,8.26s-3.71,8.26-8.26,8.26c-4.56,0-8.26-3.71-8.26-8.26
			S128.01,73.2,132.57,73.2z"/>
		<path class="st1" d="M115.7,252.31l96.84-95.92l15.23,0c17.09,0,32.03-12.87,33.17-29.92c1.25-18.7-13.61-34.31-32.04-34.31
			h-42.81c-0.95,0-1.85,0.38-2.52,1.05l-29.59,29.59v-9.23c0-5.91-4.79-10.7-10.7-10.7h-21.41c-5.91,0-10.7,4.79-10.7,10.7v52.04
			L88.28,188.5H73.12c-17.78,0-33.31,13.93-33.31,31.71c0,25.37,21.4,32.09,28.54,32.09H115.7z M118.3,113.58
			c0-1.97,1.6-3.57,3.57-3.57h21.41c1.97,0,3.57,1.6,3.57,3.57v16.36l-7.14,7.14v-12.38c0-1.97-1.6-3.57-3.57-3.57h0
			c-1.97,0-3.57,1.6-3.57,3.57v19.52l-14.27,14.27V113.58z M46.94,220.61c0-13.77,11.2-24.97,24.97-24.97h17.84
			c0.95,0,1.86-0.37,2.52-1.05l95.29-95.29h41.34c13.77,0,24.97,11.21,24.97,24.97s-11.2,24.97-24.97,24.97h-17.84
			c-0.95,0-1.86,0.37-2.52,1.05l-95.29,95.29H71.92C58.15,245.59,46.94,234.38,46.94,220.61L46.94,220.61z"/>
	</g>
</g>
<g class="st2">
	<g class="st3">
		<g>
			<path class="st1" d="M178.29,68.2c0.02-6.19-2.26-11.89-6.42-16.05c-4.17-4.17-9.87-6.45-16.05-6.42c-0.99,0-1.79,0.81-1.79,1.8
				c0,0.99,0.81,1.79,1.8,1.79c5.22-0.02,10.02,1.89,13.5,5.37c3.48,3.48,5.39,8.28,5.37,13.5c0,0.5,0.2,0.95,0.53,1.28
				c0.32,0.32,0.77,0.52,1.26,0.53C177.48,69.99,178.29,69.19,178.29,68.2z"/>
		</g>
	</g>
	<g class="st3">
		<g>
			<path class="st1" d="M167.96,68.37c-0.02-3.29-1.37-6.67-3.52-8.83c0,0,0,0,0,0l-0.09-0.09c0,0,0,0,0,0
				c-2.16-2.16-5.54-3.51-8.83-3.52c-0.99,0-1.8,0.79-1.8,1.79c0,0.5,0.2,0.95,0.53,1.28c0.32,0.32,0.77,0.52,1.26,0.53
				c2.34,0.01,4.81,0.98,6.3,2.47c0,0,0,0,0,0l0.09,0.09c0,0,0,0,0,0c1.49,1.49,2.46,3.97,2.47,6.3c0,0.99,0.81,1.79,1.8,1.79
				C167.17,70.17,167.97,69.36,167.96,68.37z"/>
		</g>
	</g>
</g>
</svg>
