<?xml version="1.0" encoding="utf-8"?>
<!-- Generator: Adobe Illustrator 24.3.0, SVG Export Plug-In . SVG Version: 6.00 Build 0)  -->
<svg version="1.1" id="Layer_1" xmlns="http://www.w3.org/2000/svg" xmlns:xlink="http://www.w3.org/1999/xlink" x="0px" y="0px"
	 viewBox="0 0 300 300" style="enable-background:new 0 0 300 300;" xml:space="preserve">
<style type="text/css">
	.st0{opacity:0.4;}
	.st1{opacity:0.3;}
	.st2{fill:#163072;}
	.st3{opacity:0.2;fill:#163072;}
</style>
<g class="st0">
	<g class="st1">
		<g>
			<path class="st2" d="M253.41,166.5c0.02-6.19-2.26-11.89-6.42-16.05c-4.17-4.17-9.87-6.45-16.05-6.42c-0.99,0-1.79,0.81-1.79,1.8
				c0,0.99,0.81,1.79,1.8,1.79c5.22-0.02,10.02,1.89,13.5,5.37c3.48,3.48,5.39,8.28,5.37,13.5c0,0.5,0.2,0.95,0.53,1.28
				c0.32,0.32,0.77,0.52,1.26,0.53C252.6,168.29,253.41,167.49,253.41,166.5z"/>
		</g>
	</g>
	<g class="st1">
		<g>
			<path class="st2" d="M243.08,166.68c-0.02-3.29-1.37-6.67-3.52-8.83c0,0,0,0,0,0l-0.09-0.09c0,0,0,0,0,0
				c-2.16-2.16-5.54-3.51-8.83-3.52c-0.99,0-1.8,0.79-1.8,1.79c0,0.5,0.2,0.95,0.53,1.28c0.32,0.32,0.77,0.52,1.26,0.53
				c2.34,0.01,4.81,0.98,6.3,2.47c0,0,0,0,0,0l0.09,0.09c0,0,0,0,0,0c1.49,1.49,2.46,3.97,2.47,6.3c0,0.99,0.81,1.79,1.8,1.79
				C242.29,168.48,243.09,167.67,243.08,166.68z"/>
		</g>
	</g>
</g>
<g>
	<g>
		<path class="st2" d="M201.94,60.67c-7.1,0.01-12.85,5.76-12.86,12.86c0,1.6,1.3,2.9,2.9,2.9c1.6,0,2.9-1.3,2.9-2.9
			c0-3.89,3.16-7.05,7.05-7.05h8.75c1.6,0,2.9-1.3,2.9-2.9c0-1.6-1.3-2.9-2.9-2.9H201.94z"/>
		<path class="st2" d="M182.03,76.43c1.6,0,2.9-1.3,2.9-2.9c0.01-9.39,7.62-16.99,17-17h16.32c1.6,0,2.9-1.3,2.9-2.9
			c0-1.6-1.3-2.9-2.9-2.9h-16.32c-12.59,0.01-22.79,10.22-22.81,22.81C179.13,75.13,180.43,76.43,182.03,76.43z"/>
		<path class="st2" d="M238.22,231.52h-7.05v-63.13c0-1.6-1.3-2.9-2.9-2.9h-20.16l-3.33-69.92c1.05-0.47,1.72-1.51,1.72-2.65v-9.95
			c0-1.6-1.3-2.9-2.9-2.9h-33.18c-1.6,0-2.9,1.3-2.9,2.9v9.95c0,1.15,0.67,2.19,1.72,2.65l-3.34,69.92h-39.54V151.9h7.05
			c1.6,0,2.9-1.3,2.9-2.9v-9.95c0-1.6-1.3-2.9-2.9-2.9H47.47c-1.6,0-2.9,1.3-2.9,2.9V149c0,1.6,1.3,2.9,2.9,2.9h7.05v79.62h-7.05
			c-1.6,0-2.9,1.3-2.9,2.9v9.95c0,1.6,1.3,2.9,2.9,2.9h190.76c1.6,0,2.9-1.3,2.9-2.9v-9.95
			C241.13,232.82,239.83,231.52,238.22,231.52z M173.32,85.87h27.37v4.15h-27.37V85.87z M175.04,95.82h23.94l3.32,69.67h-30.58
			L175.04,95.82z M225.37,171.3v60.23h-99.01v-60.23L225.37,171.3z M50.37,141.95h80.13v4.15H50.37V141.95z M60.32,151.9h60.23
			v79.62h-17.26v-30.27c0-1.6-1.3-2.9-2.9-2.9H80.48c-1.6,0-2.9,1.3-2.9,2.9v30.27H60.32V151.9z M97.48,231.52h-14.1v-27.37h14.1
			V231.52z M235.32,241.48H50.37v-4.15h184.95V241.48z"/>
		<path class="st2" d="M149.6,211.3h12.97c2.2,0,3.99-1.79,3.99-3.99v-11.79c0-2.2-1.79-3.99-3.99-3.99H149.6
			c-2.2,0-3.99,1.79-3.99,3.99v11.79C145.6,209.51,147.39,211.3,149.6,211.3z M151.21,197.13h9.74v8.56h-9.74V197.13z"/>
		<path class="st2" d="M191.35,211.3h12.97c2.2,0,3.99-1.79,3.99-3.99v-11.79c0-2.2-1.79-3.99-3.99-3.99h-12.97
			c-2.2,0-3.99,1.79-3.99,3.99v11.79C187.35,209.51,189.15,211.3,191.35,211.3z M192.96,197.13h9.74v8.56h-9.74V197.13z"/>
		<path class="st3" d="M187.97,85.87c0,0,3.76,0,3.76,4.15h8.96v-4.15H187.97z"/>
	</g>
	<polygon class="st3" points="191.73,95.82 191.73,167.46 205.76,167.46 198.98,95.82 	"/>
	<polygon class="st3" points="191.73,169.14 191.73,193.03 203.82,193.03 205.76,195.97 205.76,206.81 202.7,209.2 191.73,209.2 
		191.73,234.38 228.82,234.38 227.9,169.14 	"/>
	<path class="st3" d="M95.62,193.94v-36.8c0,0,0.74-5.23-4.44-5.23h29.37v79.62h-17.26v-30.27c0,0-1.11-2.9-2.9-2.9
		c-3.29,0-4.74,0.16-4.74,0.16L95.62,193.94z"/>
</g>
</svg>
