<?xml version="1.0" encoding="utf-8"?>
<!-- Generator: Adobe Illustrator 24.3.0, SVG Export Plug-In . SVG Version: 6.00 Build 0)  -->
<svg version="1.1" id="Layer_1" xmlns="http://www.w3.org/2000/svg" xmlns:xlink="http://www.w3.org/1999/xlink" x="0px" y="0px"
	 viewBox="0 0 300 300" style="enable-background:new 0 0 300 300;" xml:space="preserve">
<style type="text/css">
	.st0{opacity:0.4;}
	.st1{opacity:0.3;}
	.st2{fill:#163072;}
	.st3{opacity:0.2;fill:#163072;}
</style>
<g class="st0">
	<g class="st1">
		<g>
			<path class="st2" d="M254.27,87.23c0.02-6.19-2.26-11.89-6.42-16.05c-4.17-4.17-9.87-6.45-16.05-6.42c-0.99,0-1.79,0.81-1.79,1.8
				s0.81,1.79,1.8,1.79c5.22-0.02,10.02,1.89,13.5,5.37c3.48,3.48,5.39,8.28,5.37,13.5c0,0.5,0.2,0.95,0.53,1.28
				c0.32,0.32,0.77,0.52,1.26,0.53C253.46,89.02,254.26,88.22,254.27,87.23z"/>
		</g>
	</g>
	<g class="st1">
		<g>
			<path class="st2" d="M243.94,87.41c-0.02-3.29-1.37-6.67-3.52-8.83c0,0,0,0,0,0l-0.09-0.09c0,0,0,0,0,0
				c-2.16-2.16-5.54-3.51-8.83-3.52c-0.99,0-1.8,0.79-1.8,1.79c0,0.5,0.2,0.95,0.53,1.28c0.32,0.32,0.77,0.52,1.26,0.53
				c2.34,0.01,4.81,0.98,6.3,2.47c0,0,0,0,0,0l0.09,0.09c0,0,0,0,0,0c1.49,1.49,2.46,3.97,2.47,6.3c0,0.99,0.81,1.79,1.8,1.79
				C243.14,89.21,243.94,88.4,243.94,87.41z"/>
		</g>
	</g>
</g>
<g>
	<path class="st3" d="M225.25,91.59c-4.62,0-50.47,0-50.47,0s21.8,2.62,27.04,18.37l1.12-1.13h0.03l6.35,6.37v17.79h-6.37
		c0,21.83,0,47.77,0,47.77h22.29c0,0,7.55,2.94,7.55-8.24c0-11.18-4.37-77.74-4.37-77.74S229.87,91.59,225.25,91.59z"/>
	<path class="st3" d="M164.74,59.75c0,0,0,0,15.92-0.01s15.92,15.92,15.92,15.92v9.55h-9.55c0,0,0-5.18,0-9.55s-6.37-6.37-6.37-6.37
		h-15.92V59.75z"/>
	<g id="Page-1_3_">
		<g id="_x30_33---Suitcase-and-Trolley_3_">
			<path id="Shape_9_" class="st2" d="M59.87,86.61l6.16-3.08v97.23c0.01,8.81,5.2,16.79,13.25,20.36
				c-8.26,5.85-11.93,16.26-9.17,26c2.76,9.73,11.35,16.68,21.44,17.33s19.51-5.13,23.49-14.43c3.98-9.3,1.67-20.1-5.76-26.96h85.46
				c-7.28,6.71-9.66,17.21-6,26.41c3.67,9.2,12.62,15.18,22.52,15.04c9.9-0.14,18.68-6.37,22.09-15.66
				c3.41-9.29,0.73-19.73-6.74-26.23c3.73-1,6.67-3.88,7.74-7.59c1.08-3.71,0.13-7.72-2.48-10.56c1.88-1.8,2.94-4.28,2.93-6.88
				v-82.8c0-5.28-4.28-9.55-9.55-9.55h-22.29v-9.55c-0.01-12.31-9.99-22.28-22.29-22.29h-31.85c-12.31,0.01-22.28,9.99-22.29,22.29
				v9.55h-22.29c-5.28,0-9.55,4.28-9.55,9.55v82.8c0.01,1.09,0.21,2.16,0.59,3.18h-6.96V62.93c0-3.31-1.71-6.37-4.52-8.11
				c-2.81-1.74-6.32-1.9-9.28-0.43L49.87,66.65c-3.78,1.9-6.16,5.78-6.14,10.01c0,1.72,0.4,3.43,1.17,4.97
				C47.69,87.1,54.35,89.32,59.87,86.61L59.87,86.61z M110.61,220.56c0,9.67-7.84,17.52-17.52,17.52s-17.52-7.84-17.52-17.52
				s7.84-17.52,17.52-17.52C102.76,203.06,110.6,210.9,110.61,220.56z M228.44,220.56c0,9.67-7.84,17.52-17.52,17.52
				c-9.67,0-17.52-7.84-17.52-17.52s7.84-17.52,17.52-17.52C220.59,203.06,228.43,210.9,228.44,220.56z M196.59,132.99V115.2
				l6.35-6.37h0.03l6.35,6.37v17.79H196.59z M132.9,75.66c0.01-8.79,7.13-15.91,15.92-15.92h31.85c8.79,0.01,15.91,7.13,15.92,15.92
				v9.55h-9.55v-9.55c0-3.52-2.85-6.37-6.37-6.37h-31.85c-3.52,0-6.37,2.85-6.37,6.37v9.55h-9.55V75.66z M148.82,85.22v-9.55h31.85
				v9.55H148.82z M126.53,180.76h-22.29c-1.76,0-3.18-1.43-3.18-3.18v-82.8c0-1.76,1.43-3.18,3.18-3.18h95.54v11.75
				c-0.48,0.27-0.92,0.6-1.32,0.98l-6.37,6.37c-1.2,1.19-1.87,2.81-1.87,4.5v17.79c0,3.52,2.85,6.37,6.37,6.37h12.74
				c3.52,0,6.37-2.85,6.37-6.37V115.2c0-1.69-0.67-3.31-1.87-4.5l-6.37-6.37c-0.39-0.38-0.84-0.72-1.32-0.98V91.59h19.11
				c1.76,0,3.18,1.43,3.18,3.18v82.8c0,1.76-1.43,3.18-3.18,3.18H132.9H126.53z M81.94,99.92v80.83c0,3.52,2.85,6.37,6.37,6.37
				h15.92h119.42c2.64,0,4.78,2.14,4.78,4.78s-2.14,4.78-4.78,4.78H88.31c-8.79-0.01-15.91-7.13-15.92-15.92V99.92v-8.97V78.38
				c0-1.76-1.43-3.18-3.18-3.18c-0.49,0-0.98,0.12-1.42,0.34L57.04,80.9c-2.37,1.16-5.24,0.21-6.45-2.13
				c-0.33-0.66-0.49-1.38-0.49-2.11c0-1.82,1.02-3.48,2.63-4.32l24.61-12.26c0.99-0.49,2.15-0.44,3.09,0.14
				c0.94,0.58,1.51,1.6,1.51,2.7v28.02V99.92z"/>
			<path id="Shape_2_" class="st2" d="M93.09,231.71c6.16,0,11.15-4.99,11.15-11.15s-4.99-11.15-11.15-11.15
				c-6.16,0-11.15,4.99-11.15,11.15S86.93,231.71,93.09,231.71z M93.09,215.79c2.64,0,4.78,2.14,4.78,4.78s-2.14,4.78-4.78,4.78
				c-2.64,0-4.78-2.14-4.78-4.78S90.45,215.79,93.09,215.79z"/>
			<path id="Shape_1_" class="st2" d="M210.92,209.42c-6.16,0-11.15,4.99-11.15,11.15s4.99,11.15,11.15,11.15
				c6.16,0,11.15-4.99,11.15-11.15S217.08,209.42,210.92,209.42z M210.92,225.34c-2.64,0-4.78-2.14-4.78-4.78s2.14-4.78,4.78-4.78
				c2.64,0,4.78,2.14,4.78,4.78S213.56,225.34,210.92,225.34z"/>
		</g>
	</g>
</g>
</svg>
