<?xml version="1.0" encoding="utf-8"?>
<!-- Generator: Adobe Illustrator 24.3.0, SVG Export Plug-In . SVG Version: 6.00 Build 0)  -->
<svg version="1.1" id="Layer_1" xmlns="http://www.w3.org/2000/svg" xmlns:xlink="http://www.w3.org/1999/xlink" x="0px" y="0px"
	 viewBox="0 0 300 300" style="enable-background:new 0 0 300 300;" xml:space="preserve">
<style type="text/css">
	.st0{opacity:0.4;}
	.st1{opacity:0.3;}
	.st2{fill:#163072;}
	.st3{opacity:0.2;fill:#163072;}
</style>
<g class="st0">
	<g class="st1">
		<g>
			<path class="st2" d="M230.21,73.94c0.02-6.19-2.26-11.89-6.42-16.05c-4.17-4.17-9.87-6.45-16.05-6.42c-0.99,0-1.79,0.81-1.79,1.8
				c0,0.99,0.81,1.79,1.8,1.79c5.22-0.02,10.02,1.89,13.5,5.37c3.48,3.48,5.39,8.28,5.37,13.5c0,0.5,0.2,0.95,0.53,1.28
				c0.32,0.32,0.77,0.52,1.26,0.53C229.4,75.73,230.21,74.93,230.21,73.94z"/>
		</g>
	</g>
	<g class="st1">
		<g>
			<path class="st2" d="M219.88,74.12c-0.02-3.29-1.37-6.67-3.52-8.83c0,0,0,0,0,0l-0.09-0.09c0,0,0,0,0,0
				c-2.16-2.16-5.54-3.51-8.83-3.52c-0.99,0-1.8,0.79-1.8,1.79c0,0.5,0.2,0.95,0.53,1.28c0.32,0.32,0.77,0.52,1.26,0.53
				c2.34,0.01,4.81,0.98,6.3,2.47c0,0,0,0,0,0l0.09,0.09c0,0,0,0,0,0c1.49,1.49,2.46,3.97,2.47,6.3c0,0.99,0.81,1.79,1.8,1.79
				C219.09,75.91,219.89,75.11,219.88,74.12z"/>
		</g>
	</g>
</g>
<g>
	<path class="st2" d="M95.2,72.41c-4.54,0-8.9,1.94-11.97,5.33c-3.01,3.34-4.5,7.81-4.1,12.28h-0.07v143.72
		c0,8.17,6.63,14.8,14.8,14.8h112.54c2.63,0,4.76-2.13,4.76-4.76V104.7v-5.87v-22.4c0-2.22-1.8-4.02-4.02-4.02H95.2z M84.92,233.74
		V101.76c2.45,1.85,5.5,2.94,8.81,2.94v137.96C88.86,242.59,84.92,238.62,84.92,233.74z M205.28,242.67H99.6V104.7h8.81v73.98
		c0,2,1.29,3.7,3.23,4.24c0.4,0.11,0.8,0.16,1.2,0.16c0.04,0,0.09-0.01,0.13-0.02c0.13,0,0.26-0.04,0.39-0.05
		c0.3-0.04,0.59-0.1,0.88-0.19c0.14-0.05,0.27-0.1,0.41-0.16c0.28-0.13,0.53-0.28,0.77-0.47c0.11-0.08,0.21-0.15,0.31-0.23
		c0.33-0.29,0.62-0.62,0.86-1.02l12.38-20.63l12.38,20.63c0.96,1.6,2.76,2.35,4.55,2.02c0.13-0.02,0.26-0.01,0.39-0.04
		c1.93-0.54,3.23-2.24,3.23-4.24V104.7h55.77L205.28,242.67L205.28,242.67z M144.04,100.25l-0.01,0.02l-0.4,0.8v0.12l-0.29,0.68
		l0.29,0.45v0.33v70.72l-14.68-24.46l-14.68,24.46v-70.9l4.75-9.5h28.66L144.04,100.25z M151.32,98.83l5.87-11.74H115.4l-5.87,11.74
		H95.82c-5.56,0-10.32-4.05-10.84-9.22c-0.3-2.93,0.63-5.74,2.6-7.93c1.95-2.16,4.73-3.4,7.61-3.4h110.08v2.94H190.6
		c-1.62,0-2.94,1.31-2.94,2.94c0,1.62,1.31,2.94,2.94,2.94h14.68v2.94h-11.74c-1.62,0-2.94,1.31-2.94,2.94
		c0,1.62,1.31,2.94,2.94,2.94h11.74v2.94H151.32z"/>
	<path class="st3" d="M160.95,78.12c0,0,20.89,0.4,20.89,13.53c0,15.21,0,39.45,0,151.02h23.44V78.12H160.95z"/>
</g>
</svg>
