<?xml version="1.0" encoding="utf-8"?>
<!-- Generator: Adobe Illustrator 24.3.0, SVG Export Plug-In . SVG Version: 6.00 Build 0)  -->
<svg version="1.1" id="Layer_1" xmlns="http://www.w3.org/2000/svg" xmlns:xlink="http://www.w3.org/1999/xlink" x="0px" y="0px"
	 viewBox="0 0 300 300" style="enable-background:new 0 0 300 300;" xml:space="preserve">
<style type="text/css">
	.st0{opacity:0.4;}
	.st1{opacity:0.3;}
	.st2{fill:#163072;}
	.st3{opacity:0.2;fill:#163072;}
</style>
<g class="st0">
	<g class="st1">
		<g>
			<path class="st2" d="M242.93,80.82c0.02-6.19-2.26-11.89-6.42-16.05c-4.17-4.17-9.87-6.45-16.05-6.42c-0.99,0-1.79,0.81-1.79,1.8
				c0,0.99,0.81,1.79,1.8,1.79c5.22-0.02,10.02,1.89,13.5,5.37c3.48,3.48,5.39,8.28,5.37,13.5c0,0.5,0.2,0.95,0.53,1.28
				c0.32,0.32,0.77,0.52,1.26,0.53C242.12,82.61,242.93,81.81,242.93,80.82z"/>
		</g>
	</g>
	<g class="st1">
		<g>
			<path class="st2" d="M232.6,80.99c-0.02-3.29-1.37-6.67-3.52-8.83c0,0,0,0,0,0l-0.09-0.09c0,0,0,0,0,0
				c-2.16-2.16-5.54-3.51-8.83-3.52c-0.99,0-1.8,0.79-1.8,1.79c0,0.5,0.2,0.95,0.53,1.28c0.32,0.32,0.77,0.52,1.26,0.53
				c2.34,0.01,4.81,0.98,6.3,2.47c0,0,0,0,0,0l0.09,0.09c0,0,0,0,0,0c1.49,1.49,2.46,3.97,2.47,6.3c0,0.99,0.81,1.79,1.8,1.79
				C231.8,82.79,232.6,81.98,232.6,80.99z"/>
		</g>
	</g>
</g>
<g>
	<path class="st3" d="M211.51,94.39l-0.48-14.53h-57.4c0,0,17.65,4.57,22.12,19.27h8.96l6.34,40.08c0,6.95-6.14,12.68-13.7,12.68
		c-0.2,0-0.38-0.05-0.57-0.05c0,8.34,0,17.07,0,25.63h11.4v24.66h-11.4c0,19.44,0,33.97,0,33.97h35.75v-77.05
		c0,0,18.29-4.85,18.29-20.1L211.51,94.39z M212.73,152.1c-7.77,0-14.32-5.73-14.32-12.68v-0.2v-0.2l-6.14-39.68h16.97l17.59,40.49
		C226.63,146.57,220.29,152.1,212.73,152.1z"/>
	<g>
		<path class="st2" d="M193.91,202.13v-27.53c0-1.58-1.28-2.87-2.87-2.87h-34.41c-1.58,0-2.87,1.28-2.87,2.87v27.53h-2.87
			c-1.58,0-2.87,1.28-2.87,2.87c0,1.58,1.28,2.87,2.87,2.87h45.88c1.58,0,2.87-1.28,2.87-2.87c0-1.58-1.28-2.87-2.87-2.87H193.91z
			 M188.17,202.13H159.5v-24.66h28.68V202.13z"/>
		<path class="st2" d="M229.9,232.32h-13.7l0.2-73.27c9.82-1.64,17.59-9.61,17.79-19.22c0-0.61,0-1.23-0.2-1.84l-19.02-43.77
			c-0.2-0.2-0.2-0.41-0.41-0.61V80.09c0-2.05-1.64-3.68-3.68-3.68H78.36c-2.04,0-3.68,1.64-3.68,3.68v14.54l-18.82,43.15
			c0,0.2,0,0.41-0.2,0.61c0,0.2-0.2,0.41-0.2,0.82c0,9.41,7.16,17.38,16.57,19.43v73.48H58.73v0.2c-2.05,0-3.68,1.64-3.68,3.68
			c0,2.05,1.64,3.68,3.68,3.68h17.18h136.61h17.38c2.04,0,3.68-1.64,3.68-3.68C233.59,233.96,231.95,232.32,229.9,232.32z
			 M82.04,83.77H207.2v8h-62.17H82.04V83.77z M191.05,139.21c0,6.95-6.14,12.68-13.7,12.68s-13.91-5.73-14.11-12.48v-0.2v-0.2V99.13
			h21.47L191.05,139.21z M155.87,99.13v40.08v0.2c-0.2,6.95-5.11,12.48-11.45,12.48c-6.34,0-11.66-5.73-11.66-12.68V99.13h12.27
			H155.87z M125.6,99.13v39.68c0,0.2,0,0.2,0,0.41c0,6.95-5.93,12.68-13.09,12.68c-7.36,0.2-13.29-5.32-13.5-12.07l6.34-40.7H125.6z
			 M63.02,139.83l17.59-40.7h17.18l-6.14,38.65c0,0.41-0.2,1.02-0.2,1.43c0,6.95-6.34,12.68-14.11,12.68
			C69.77,152.1,63.43,146.57,63.02,139.83z M130.82,202.13v5.74v24.66h-28.68v-24.66v-5.74v-24.66h28.68V202.13z M209.04,232.53
			h-72.49v-57.92c0-1.58-1.28-2.87-2.87-2.87H99.28c-1.58,0-2.87,1.28-2.87,2.87v57.92H79.79v-73.27
			c6.34-0.61,12.07-3.89,15.34-8.59c3.68,5.32,10.02,8.79,17.18,8.79c1.02,0,2.05,0,2.86-0.2c0,0,3.36,0.31,7.36-2.66
			c2.66-1.43,4.7-3.48,6.54-5.73c3.48,5.11,9.2,8.59,15.54,8.59c6.34,0,11.86-3.27,15.34-8.59c3.89,5.11,10.23,8.59,17.38,8.59
			c7.36,0,13.7-3.48,17.59-8.79c3.27,4.5,8.38,7.57,14.32,8.59L209.04,232.53z M198.41,139.42v-0.2v-0.2l-6.14-39.68h16.97
			l17.59,40.49c-0.2,6.75-6.54,12.27-14.11,12.27C204.95,152.1,198.41,146.37,198.41,139.42z"/>
	</g>
</g>
</svg>
