<?xml version="1.0" encoding="utf-8"?>
<!-- Generator: Adobe Illustrator 24.3.0, SVG Export Plug-In . SVG Version: 6.00 Build 0)  -->
<svg version="1.1" id="Layer_1" xmlns="http://www.w3.org/2000/svg" xmlns:xlink="http://www.w3.org/1999/xlink" x="0px" y="0px"
	 viewBox="0 0 300 300" style="enable-background:new 0 0 300 300;" xml:space="preserve">
<style type="text/css">
	.st0{opacity:0.4;}
	.st1{opacity:0.3;}
	.st2{fill:#163072;}
	.st3{fill:#163072;stroke:#163072;stroke-width:0.15;stroke-miterlimit:10;}
	.st4{opacity:0.2;fill:#163072;}
</style>
<g class="st0">
	<g class="st1">
		<g>
			<path class="st2" d="M239.42,96.36c0.02-6.19-2.26-11.89-6.42-16.05c-4.17-4.17-9.87-6.45-16.05-6.42c-0.99,0-1.79,0.81-1.79,1.8
				c0,0.99,0.81,1.79,1.8,1.79c5.22-0.02,10.02,1.89,13.5,5.37c3.48,3.48,5.39,8.28,5.37,13.5c0,0.5,0.2,0.95,0.53,1.28
				c0.32,0.32,0.77,0.52,1.26,0.53C238.61,98.15,239.42,97.35,239.42,96.36z"/>
		</g>
	</g>
	<g class="st1">
		<g>
			<path class="st2" d="M229.09,96.54c-0.02-3.29-1.37-6.67-3.52-8.83c0,0,0,0,0,0l-0.09-0.09c0,0,0,0,0,0
				c-2.16-2.16-5.54-3.51-8.83-3.52c-0.99,0-1.8,0.79-1.8,1.79c0,0.5,0.2,0.95,0.53,1.28c0.32,0.32,0.77,0.52,1.26,0.53
				c2.34,0.01,4.81,0.98,6.3,2.47c0,0,0,0,0,0l0.09,0.09c0,0,0,0,0,0c1.49,1.49,2.46,3.97,2.47,6.3c0,0.99,0.81,1.79,1.8,1.79
				C228.3,98.33,229.1,97.53,229.09,96.54z"/>
		</g>
	</g>
</g>
<g>
	<path class="st3" d="M214.31,191.29h16.23c1.56,0,2.82-1.26,2.82-2.82c0-1.56-1.26-2.82-2.82-2.82h-16.23
		c-1.56,0-2.82,1.26-2.82,2.82C211.5,190.03,212.76,191.29,214.31,191.29z"/>
	<path class="st3" d="M214.31,168.8h16.23c1.56,0,2.82-1.26,2.82-2.82s-1.26-2.82-2.82-2.82h-16.23c-1.56,0-2.82,1.26-2.82,2.82
		S212.76,168.8,214.31,168.8z"/>
	<path class="st3" d="M83.69,185.65H67.45c-1.56,0-2.82,1.26-2.82,2.82c0,1.56,1.26,2.82,2.82,2.82h16.23
		c1.56,0,2.82-1.26,2.82-2.82C86.5,186.91,85.24,185.65,83.69,185.65z"/>
	<path class="st3" d="M83.69,163.17H67.45c-1.56,0-2.82,1.26-2.82,2.82s1.26,2.82,2.82,2.82h16.23c1.56,0,2.82-1.26,2.82-2.82
		S85.24,163.17,83.69,163.17z"/>
	<path class="st3" d="M129.25,132.26h-13.05c-2.21,0-4,1.8-4,4.01v11.85c0,2.21,1.8,4.01,4,4.01h13.05c2.21,0,4.01-1.8,4.01-4.01
		v-11.85C133.27,134.07,131.47,132.26,129.25,132.26z M127.63,146.51h-9.79v-8.61h9.79V146.51z"/>
	<path class="st3" d="M155.52,132.26h-13.05c-2.21,0-4.01,1.8-4.01,4.01v11.85c0,2.21,1.8,4.01,4.01,4.01h13.05c2.21,0,4-1.8,4-4.01
		v-11.85C159.53,134.07,157.73,132.26,155.52,132.26z M153.89,146.51h-9.79v-8.61h9.79V146.51z"/>
	<path class="st3" d="M168.75,152.15h13.04c2.21,0,4.01-1.8,4.01-4.01v-11.85c0-2.21-1.8-4.01-4.01-4.01h-13.04
		c-2.21,0-4.01,1.8-4.01,4.01v11.85C164.73,150.35,166.53,152.15,168.75,152.15z M170.37,137.9h9.79v8.61h-9.79V137.9z"/>
	<path class="st3" d="M240.28,128.08h-35v-8.03h1.03c2.92,0,5.29-2.37,5.29-5.29v-12.68c0-2.92-2.37-5.29-5.29-5.29h-22.73V65.42
		c0-2.59-2.11-4.7-4.71-4.7h-59.75c-2.59,0-4.7,2.11-4.7,4.7V96.8H91.69c-2.92,0-5.3,2.37-5.3,5.29v12.68c0,2.92,2.38,5.29,5.3,5.29
		h1.03v8.03h-35c-2.72,0-4.94,2.22-4.94,4.95v101.43c0,1.56,1.26,2.82,2.82,2.82h186.8c1.56,0,2.82-1.26,2.82-2.82V133.03
		C245.22,130.3,243,128.08,240.28,128.08z M183.58,102.43h22.38v11.98h-22.38V102.43z M120.06,66.36h57.88v48.05h-14.43h-6.18
		h-37.27V66.36z M92.03,114.41v-11.98h22.39v11.98H92.03z M58.42,133.72h34.3v10.91h-34.3V133.72z M92.72,231.64h-34.3v-81.38h34.3
		v37.95v6.17V231.64z M146.18,189.6v42.04h-28.86V188.5l29.08,0C146.26,188.84,146.18,189.21,146.18,189.6z M151.82,231.64V189.6
		c0-0.39-0.08-0.76-0.22-1.09l29.07,0v43.14H151.82z M199.64,231.64H186.3v-43.33c0-3.01-2.5-5.45-5.58-5.45h-63.44
		c-3.08,0-5.59,2.44-5.59,5.45v43.33H98.36v-37.25v-6.17v-68.17h58.97h6.18h36.13V231.64z M239.58,231.64h-34.3v-81.38h34.3V231.64z
		 M239.58,144.63h-34.3v-10.91h34.3V144.63z"/>
	<path class="st3" d="M157.99,99.38h2.94c3.53,0,6.4-2.87,6.4-6.4v-5.21c0-3.53-2.87-6.4-6.4-6.4h-2.94v-2.93
		c0-3.53-2.86-6.4-6.39-6.4h-5.22c-3.53,0-6.4,2.87-6.4,6.4v2.93h-2.93c-3.53,0-6.4,2.87-6.4,6.4v5.21c0,3.53,2.87,6.4,6.4,6.4h2.93
		v2.94c0,3.53,2.87,6.4,6.4,6.4h5.22c3.52,0,6.39-2.87,6.39-6.4V99.38z M155.18,93.74c-1.56,0-2.82,1.26-2.82,2.82v5.76
		c0,0.41-0.34,0.76-0.75,0.76h-5.22c-0.41,0-0.76-0.35-0.76-0.76v-5.76c0-1.56-1.26-2.82-2.82-2.82h-5.75
		c-0.41,0-0.76-0.35-0.76-0.76v-5.21c0-0.41,0.35-0.76,0.76-0.76h5.75c1.56,0,2.82-1.26,2.82-2.82v-5.75c0-0.41,0.35-0.76,0.76-0.76
		h5.22c0.41,0,0.75,0.35,0.75,0.76v5.75c0,1.56,1.26,2.82,2.82,2.82h5.76c0.41,0,0.76,0.35,0.76,0.76v5.21
		c0,0.41-0.35,0.76-0.76,0.76H155.18z"/>
</g>
<path class="st4" d="M205.04,134.01c0,0,9.86-1.41,9.86,12.22c0,10.57,0,89.39,0,89.39h29.28v-101.6H205.04z"/>
<path class="st4" d="M146.4,66.36c0,0,15.3-2.15,15.3,9.63s0,38.42,0,38.42h16.24V66.36H146.4z"/>
</svg>
