<?xml version="1.0" encoding="utf-8"?>
<!-- Generator: Adobe Illustrator 24.3.0, SVG Export Plug-In . SVG Version: 6.00 Build 0)  -->
<svg version="1.1" id="Layer_1" xmlns="http://www.w3.org/2000/svg" xmlns:xlink="http://www.w3.org/1999/xlink" x="0px" y="0px"
	 viewBox="0 0 300 300" style="enable-background:new 0 0 300 300;" xml:space="preserve">
<style type="text/css">
	.st0{opacity:0.4;fill:#FB6819;}
	.st1{opacity:0.2;fill:#163072;}
	.st2{fill:#163072;}
	.st3{opacity:0.4;}
	.st4{opacity:0.3;}
</style>
<g>
	<path class="st0" d="M156.27,82.64l6.9-0.03C158.99,82.5,156.27,82.64,156.27,82.64z"/>
</g>
<g>
	<path class="st1" d="M240.16,161.73V97.37c0,0,4.93-15.51-13.39-15.51l-54.33,0.22c12.38,0.32,39.53,3.13,39.53,21.63l0.22,31.52
		h1.73c4.18,0.01,7.56,3.39,7.57,7.57v15.14h-9.14l0.32,45.41h43.7c0,0,0-15.06,0-29.15C256.38,160.11,240.16,161.73,240.16,161.73z
		"/>
	<path class="st2" d="M263.12,203.36h-3.78v-30.27c-0.01-8.36-6.78-15.13-15.14-15.14V93.61c-0.01-8.36-6.78-15.13-15.14-15.14
		H70.12C61.77,78.48,55,85.25,54.98,93.61v64.33c-8.36,0.01-15.13,6.78-15.14,15.14v30.27h-3.78c-2.09,0-3.78,1.69-3.78,3.78v15.14
		c0,2.09,1.69,3.78,3.78,3.78h3.78v15.14c0,2.09,1.69,3.78,3.78,3.78h11.35c1.8,0,3.36-1.27,3.71-3.04l3.18-15.88h175.44l3.18,15.88
		c0.35,1.77,1.91,3.04,3.71,3.04h11.35c2.09,0,3.78-1.69,3.78-3.78v-15.14h3.78c2.09,0,3.78-1.69,3.78-3.78v-15.14
		C266.91,205.05,265.21,203.36,263.12,203.36z M62.55,93.61c0.01-4.18,3.39-7.56,7.57-7.57h158.94c4.18,0.01,7.56,3.39,7.57,7.57
		v64.33h-7.57v-15.14c-0.01-8.36-6.78-15.13-15.14-15.14h-45.41c-8.36,0.01-15.13,6.78-15.14,15.14v15.14h-7.57v-15.14
		c-0.01-8.36-6.78-15.13-15.14-15.14H85.26c-8.36,0.01-15.13,6.78-15.14,15.14v15.14h-7.57V93.61z M221.49,142.81v15.14h-60.55
		v-15.14c0.01-4.18,3.39-7.56,7.57-7.57h45.41C218.1,135.24,221.49,138.63,221.49,142.81z M138.24,142.81v15.14H77.69v-15.14
		c0.01-4.18,3.39-7.56,7.57-7.57h45.41C134.85,135.24,138.23,138.63,138.24,142.81z M47.42,173.08c0.01-4.18,3.39-7.56,7.57-7.57
		H244.2c4.18,0.01,7.56,3.39,7.57,7.57v30.27H47.42V173.08z M51.88,237.41h-4.47v-11.35h6.74L51.88,237.41z M251.77,237.41h-4.47
		l-2.27-11.35h6.74V237.41z M259.34,218.49H39.85v-7.57h219.49V218.49z"/>
</g>
<g class="st3">
	<g class="st4">
		<g>
			<path class="st2" d="M263.75,81.41c0.02-6.19-2.26-11.89-6.42-16.05c-4.17-4.17-9.87-6.45-16.05-6.42c-0.99,0-1.79,0.81-1.79,1.8
				c0,0.99,0.81,1.79,1.8,1.79c5.22-0.02,10.02,1.89,13.5,5.37c3.48,3.48,5.39,8.28,5.37,13.5c0,0.5,0.2,0.95,0.53,1.28
				c0.32,0.32,0.77,0.52,1.26,0.53C262.94,83.2,263.75,82.4,263.75,81.41z"/>
		</g>
	</g>
	<g class="st4">
		<g>
			<path class="st2" d="M253.42,81.58c-0.02-3.29-1.37-6.67-3.52-8.83c0,0,0,0,0,0l-0.09-0.09c0,0,0,0,0,0
				c-2.16-2.16-5.54-3.51-8.83-3.52c-0.99,0-1.8,0.79-1.8,1.79c0,0.5,0.2,0.95,0.53,1.28c0.32,0.32,0.77,0.52,1.26,0.53
				c2.34,0.01,4.81,0.98,6.3,2.47c0,0,0,0,0,0l0.09,0.09c0,0,0,0,0,0c1.49,1.49,2.46,3.97,2.47,6.3c0,0.99,0.81,1.79,1.8,1.79
				C252.63,83.38,253.42,82.57,253.42,81.58z"/>
		</g>
	</g>
</g>
</svg>
