<?xml version="1.0" encoding="utf-8"?>
<!-- Generator: Adobe Illustrator 24.3.0, SVG Export Plug-In . SVG Version: 6.00 Build 0)  -->
<svg version="1.1" id="Layer_1" xmlns="http://www.w3.org/2000/svg" xmlns:xlink="http://www.w3.org/1999/xlink" x="0px" y="0px"
	 viewBox="0 0 300 300" style="enable-background:new 0 0 300 300;" xml:space="preserve">
<style type="text/css">
	.st0{fill:#163072;}
	.st1{opacity:0.2;fill:#163072;}
	.st2{opacity:0.4;}
	.st3{opacity:0.3;}
</style>
<g>
	<g>
		<g>
			<g>
				<path class="st0" d="M234.95,91.1h-46.17l-4.37-8.73c-1.88-3.8-5.76-6.2-10.01-6.18h-57.89c-4.24-0.01-8.12,2.38-10.01,6.18
					l-4.37,8.73H55.98c-12.35,0.01-22.36,10.02-22.37,22.37v93.21c0.01,6.17,5.01,11.18,11.19,11.19h14.91
					c0.99,0,1.94-0.39,2.64-1.09c0.7-0.7,1.09-1.65,1.09-2.64c0-14.41,11.69-26.1,26.1-26.1s26.1,11.69,26.1,26.1
					c0,0.99,0.39,1.94,1.09,2.64c0.7,0.7,1.65,1.09,2.64,1.09h52.2c0.99,0,1.94-0.39,2.64-1.09c0.7-0.7,1.09-1.65,1.09-2.64
					c0-14.41,11.69-26.1,26.1-26.1s26.1,11.69,26.1,26.1c0,0.99,0.39,1.94,1.09,2.64c0.7,0.7,1.65,1.09,2.64,1.09h14.91
					c6.17-0.01,11.18-5.01,11.19-11.19v-93.21C257.31,101.13,247.3,91.12,234.95,91.1z M113.18,85.71c0.63-1.27,1.92-2.06,3.34-2.06
					h57.89c1.41,0,2.71,0.8,3.34,2.06l2.7,5.4h-69.96L113.18,85.71z M160.38,210.42h-29.83v-11.19c0-2.06,1.67-3.73,3.73-3.73h22.37
					c2.06,0,3.73,1.67,3.73,3.73L160.38,210.42L160.38,210.42z M249.87,195.5h-3.73v-11.19h3.73L249.87,195.5L249.87,195.5z
					 M234.95,98.56c6.78,0.02,12.69,4.62,14.38,11.19h-25.57c-4.12,0-7.45,3.34-7.46,7.46v44.74c0,4.12,3.34,7.45,7.46,7.46h26.1
					v7.46h-3.73c-4.12,0-7.45,3.34-7.46,7.46v11.19c0,4.12,3.34,7.45,7.46,7.46h3.73v3.73c0,2.06-1.67,3.73-3.73,3.73h-11.41
					c-1.89-16.98-16.25-29.83-33.34-29.83s-31.44,12.85-33.34,29.83h-0.22v-11.19c-0.01-6.17-5.01-11.18-11.19-11.19h-22.37
					c-6.17,0.01-11.18,5.01-11.19,11.19v11.19h-0.22c-1.89-16.98-16.25-29.83-33.34-29.83s-31.44,12.85-33.34,29.83H44.8
					c-2.06,0-3.73-1.67-3.73-3.73v-93.21c0.01-8.23,6.68-14.91,14.91-14.91 M249.87,161.95h-26.1V117.2h26.1V161.95z"/>
				<path class="st0" d="M197.67,109.75h-29.83c-4.12,0-7.45,3.34-7.46,7.46v44.74c0,4.12,3.34,7.45,7.46,7.46h29.83
					c4.12,0,7.45-3.34,7.46-7.46V117.2C205.12,113.09,201.78,109.75,197.67,109.75z M167.84,161.95V117.2h29.83l0,44.74H167.84z"/>
				<path class="st0" d="M141.74,109.75h-29.83c-4.12,0-7.45,3.34-7.46,7.46v44.74c0,4.12,3.34,7.45,7.46,7.46h29.83
					c4.12,0,7.45-3.34,7.46-7.46V117.2C149.19,113.09,145.86,109.75,141.74,109.75z M111.91,161.95V117.2h29.83l0,44.74H111.91z"/>
				<path class="st0" d="M85.81,109.75H55.98c-4.12,0-7.45,3.34-7.46,7.46v44.74c0,4.12,3.34,7.45,7.46,7.46h29.83
					c4.12,0,7.45-3.34,7.46-7.46V117.2C93.26,113.09,89.93,109.75,85.81,109.75z M55.98,161.95V117.2h29.83l0,44.74H55.98z"/>
				<path class="st0" d="M89.54,235.93c-12.01,0-21.78-9.77-21.78-21.79s9.77-21.79,21.78-21.79s21.78,9.77,21.78,21.79
					S101.55,235.93,89.54,235.93z M89.54,199.57c-8.04,0-14.57,6.54-14.57,14.58c0,8.04,6.54,14.58,14.57,14.58
					s14.57-6.54,14.57-14.58C104.11,206.11,97.58,199.57,89.54,199.57z"/>
				<path class="st0" d="M201.39,235.93c-12.01,0-21.78-9.77-21.78-21.79s9.77-21.79,21.78-21.79s21.79,9.77,21.79,21.79
					S213.41,235.93,201.39,235.93z M201.39,199.57c-8.04,0-14.57,6.54-14.57,14.58c0,8.04,6.54,14.58,14.57,14.58
					c8.04,0,14.58-6.54,14.58-14.58C215.97,206.11,209.43,199.57,201.39,199.57z"/>
			</g>
		</g>
	</g>
	<g>
		<path class="st1" d="M246.14,176.86h3.73v-7.46h-26.1c-4.12,0-7.45-3.34-7.46-7.46v-44.74c0-4.12,3.34-7.45,7.46-7.46h25.57
			c-1.69-6.57-7.6-11.17-14.38-11.19h-56.01c4.22,3.17,6.17,7.84,7.09,11.19h11.64c4.12,0,7.45,3.34,7.46,7.46v44.74
			c0,4.12-3.34,7.45-7.46,7.46h-10.85v14.53c4.42-2.14,9.37-3.34,14.57-3.34c17.09,0,31.45,12.85,33.34,29.83h11.41
			c2.06,0,3.73-1.67,3.73-3.73v-3.73h-3.73c-4.12,0-7.45-3.34-7.46-7.46v-11.19C238.69,180.2,242.02,176.87,246.14,176.86z"/>
	</g>
	<path class="st1" d="M177.75,85.71c-0.63-1.27-1.92-2.06-3.34-2.06h-32.08c4.57,0.52,9.5,2.28,9.5,7.46h28.61L177.75,85.71z"/>
</g>
<g class="st2">
	<g class="st3">
		<g>
			<path class="st0" d="M277.22,97.29c0.02-6.19-2.26-11.89-6.42-16.05c-4.17-4.17-9.87-6.45-16.05-6.42c-0.99,0-1.79,0.81-1.79,1.8
				c0,0.99,0.81,1.79,1.8,1.79c5.22-0.02,10.02,1.89,13.5,5.37c3.48,3.48,5.39,8.28,5.37,13.5c0,0.5,0.2,0.95,0.53,1.28
				c0.32,0.32,0.77,0.52,1.26,0.53C276.41,99.08,277.22,98.28,277.22,97.29z"/>
		</g>
	</g>
	<g class="st3">
		<g>
			<path class="st0" d="M266.89,97.47c-0.02-3.29-1.37-6.67-3.52-8.83c0,0,0,0,0,0l-0.09-0.09c0,0,0,0,0,0
				c-2.16-2.16-5.54-3.51-8.83-3.52c-0.99,0-1.8,0.79-1.8,1.79c0,0.5,0.2,0.95,0.53,1.28c0.32,0.32,0.77,0.52,1.26,0.53
				c2.34,0.01,4.81,0.98,6.3,2.47c0,0,0,0,0,0l0.09,0.09c0,0,0,0,0,0c1.49,1.49,2.46,3.97,2.47,6.3c0,0.99,0.81,1.79,1.8,1.79
				C266.1,99.26,266.9,98.46,266.89,97.47z"/>
		</g>
	</g>
</g>
</svg>
