<?xml version="1.0" encoding="utf-8"?>
<!-- Generator: Adobe Illustrator 24.3.0, SVG Export Plug-In . SVG Version: 6.00 Build 0)  -->
<svg version="1.1" id="Layer_1" xmlns="http://www.w3.org/2000/svg" xmlns:xlink="http://www.w3.org/1999/xlink" x="0px" y="0px"
	 viewBox="0 0 300 300" style="enable-background:new 0 0 300 300;" xml:space="preserve">
<style type="text/css">
	.st0{fill:#163072;}
	.st1{opacity:0.2;fill:#163072;}
	.st2{opacity:0.4;}
	.st3{opacity:0.3;}
</style>
<g>
	<path class="st0" d="M222.43,187.94h-4.54v-35.4c0-0.6-0.2-1.17-0.56-1.65l-13.05-17.11c1.27-1.67,2.02-3.75,2.02-6
		c0-5.47-4.45-9.93-9.93-9.93c-5.47,0-9.93,4.45-9.93,9.93c0,5.48,4.45,9.93,9.93,9.93c1.26,0,2.46-0.24,3.57-0.66l12.52,16.41
		v34.48h-12.98v-0.35c0,0,0,0,0,0v-24.87c0-13.19-11.31-18-11.79-18.2c-0.02-0.01-0.03-0.01-0.05-0.02l-25.6-9.92v-5.45
		c4.01-3.2,6.83-7.85,7.64-13.15c2-0.23,3.85-1.02,5.39-2.33c2.15-1.85,3.39-4.55,3.39-7.4c0-2.29-0.8-4.49-2.24-6.22V92.2
		c0-15.13-12.31-27.45-27.45-27.45c-15.13,0-27.45,12.31-27.45,27.45v8.04c-1.45,1.71-2.24,3.8-2.24,6.02c0,2.85,1.24,5.54,3.39,7.4
		c1.54,1.32,3.4,2.11,5.41,2.34c0.82,5.17,3.62,10.13,8.06,13.48v5.11l-25.58,9.92c-0.02,0.01-0.03,0.01-0.05,0.02
		c-0.48,0.2-11.79,5-11.79,18.2v25.22H85.54v-34.48l12.52-16.41c1.11,0.43,2.31,0.66,3.57,0.66c5.48,0,9.93-4.45,9.93-9.93
		c0-5.48-4.45-9.93-9.93-9.93c-5.48,0-9.93,4.45-9.93,9.93c0,2.25,0.76,4.33,2.02,6l-13.05,17.11c-0.36,0.47-0.56,1.05-0.56,1.65
		v35.4h-4.54c-3.31,0-6,2.69-6,6v14.08c0,3.31,2.69,6,6,6h9.6l19.55,23.18c0.48,0.57,1.19,0.9,1.93,0.9h84.71
		c0.74,0,1.45-0.33,1.93-0.9l19.55-23.18h9.6c3.31,0,6-2.7,6-6v-14.08C228.44,190.63,225.74,187.94,222.43,187.94z M196.38,132.28
		c-2.48,0-4.5-2.02-4.5-4.5c0-2.48,2.02-4.5,4.5-4.5s4.5,2.02,4.5,4.5C200.88,130.29,198.81,132.28,196.38,132.28z M101.62,123.28
		c2.48,0,4.5,2.02,4.5,4.5c0,2.48-2.02,4.5-4.5,4.5c-2.43,0-4.5-1.99-4.5-4.5C97.12,125.3,99.14,123.28,101.62,123.28z
		 M185.64,149.55c0.41,0.18,8.41,3.77,8.41,13.17v17.35c0,0,0,0,0,0v7.87h-11.78v-21.26c0-1.5-1.22-2.72-2.72-2.72
		c-1.5,0-2.72,1.22-2.72,2.72v21.26h-16.44l-4.69-27.7l1.32-1.98c1.17,0.83,2.32,1.42,4.02,0.99c1.23-0.31,2.27-1.14,2.83-2.28
		l6.62-13.28L185.64,149.55z M165.43,141.73l-5.83,11.69c-0.02-0.01-1.76-1.25-6.68-4.75c4.67-5.77,4.9-6.05,7.27-8.97
		L165.43,141.73z M148.99,152.54l3.62,2.57l-1.2,1.81h-4.83l-1.2-1.81L148.99,152.54z M141.37,135.47v-3.06
		c2.49,0.89,5.17,1.29,7.66,1.29c2.65,0,5.3-0.53,7.57-1.42v3.21l-7.61,9.4L141.37,135.47z M147.42,162.35h3.15l4.33,25.59h-11.82
		L147.42,162.35z M173.02,106.26c0,1.26-0.55,2.46-1.5,3.28c-0.47,0.4-1.01,0.7-1.61,0.88v-8.31
		C171.78,102.68,173.02,104.35,173.02,106.26z M127.62,110.42c-0.59-0.18-1.14-0.48-1.61-0.88c-0.95-0.82-1.5-2.02-1.5-3.28
		c0-1.4,0.79-2.39,1.34-2.92c0.01-0.01,0.02-0.01,0.03-0.02c0.5-0.47,1.1-0.82,1.74-1.06V110.42z M132.35,93.65
		c-1.21-0.09-2.42,0.33-3.32,1.16c-0.53,0.49-0.95,1.17-1.17,1.8c-0.37,0.06-0.74,0.13-1.11,0.23V92.2h0
		c0-12.14,9.88-22.02,22.02-22.02c12.14,0,22.02,9.88,22.02,22.02v4.51c-0.29-0.06-0.58-0.12-0.87-0.16
		c-0.03-0.96-0.26-1.55-1.16-2.64c-0.84-1.02-2.35-2.57-5.82-6.3c-1.44-1.55-3.81-1.87-5.63-0.69
		C149.9,91.77,140.8,94.26,132.35,93.65z M133.05,112.81V99.27v-0.14c5.11,0.22,10.34-0.52,15.31-2.06
		c3.91-1.22,7.7-2.94,11.19-5.13c0.99,1.07,1.81,1.94,2.49,2.66c0.05,0.05,0.09,0.09,0.13,0.14c0.24,0.26,0.47,0.51,0.69,0.74
		c0.74,0.79,1.31,1.41,1.63,1.77v15.56c0,8.53-6.96,15.45-15.45,15.45C139.65,128.27,133.05,121.05,133.05,112.81z M137.79,139.7
		l7.27,8.97c-3.14,2.23-6.33,4.5-6.67,4.74l-5.83-11.69L137.79,139.7z M112.36,149.55l15.11-5.86l6.62,13.28v0
		c0.74,1.49,2.26,2.41,3.89,2.41c1.49,0,2.38-0.7,2.96-1.12l1.32,1.98l-4.69,27.7h-16.42v-21.26c0-1.5-1.22-2.72-2.72-2.72
		s-2.72,1.22-2.72,2.72v21.26h-11.78v-25.22h0C103.94,153.34,111.85,149.77,112.36,149.55z M190.18,233.05h-82.36l-16.05-19.03
		h114.46L190.18,233.05z M223.01,208.02c0,0.32-0.26,0.57-0.57,0.57c-3.88,0-143.58,0-146.86,0c-0.32,0-0.57-0.26-0.57-0.57v-14.08
		c0-0.32,0.26-0.57,0.57-0.57c4.81,0,143.24,0,146.86,0c0.32,0,0.57,0.26,0.57,0.57V208.02z"/>
	<path class="st1" d="M191.35,235.58h-13.71c0,0,0-9.97,0-26.98s-18.47-15.23-18.47-15.23h66.47v15.23l-14.4,3.4L191.35,235.58z"/>
	<path class="st1" d="M141.37,70.18c0,0,11.24-0.48,11.24,9.73c0,3.16,0,8.99,0,15.53c2.39-1,4.74-2.12,6.94-3.5
		c0.99,1.07,1.81,1.94,2.49,2.66c0.05,0.05,0.09,0.09,0.13,0.14c0.24,0.26,0.47,0.51,0.69,0.74c0.74,0.79,1.31,1.41,1.63,1.77v15.56
		c0,7.29-5.1,13.37-11.87,14.99c0,0.3,0,0.46,0,0.46s12.82,1.64,12.82-11.63v-19.8l7.59,2.42V86.86
		C173.02,86.86,165.92,59.9,141.37,70.18z"/>
</g>
<g class="st2">
	<g class="st3">
		<g>
			<path class="st0" d="M226.45,122.26c0.02-6.19-2.26-11.89-6.42-16.05c-4.17-4.17-9.87-6.45-16.05-6.42
				c-0.99,0-1.79,0.81-1.79,1.8s0.81,1.79,1.8,1.79c5.22-0.02,10.02,1.89,13.5,5.37c3.48,3.48,5.39,8.28,5.37,13.5
				c0,0.5,0.2,0.95,0.53,1.28c0.32,0.32,0.77,0.52,1.26,0.53C225.64,124.05,226.45,123.25,226.45,122.26z"/>
		</g>
	</g>
	<g class="st3">
		<g>
			<path class="st0" d="M216.12,122.44c-0.02-3.29-1.37-6.67-3.52-8.83c0,0,0,0,0,0l-0.09-0.09c0,0,0,0,0,0
				c-2.16-2.16-5.54-3.51-8.83-3.52c-0.99,0-1.8,0.79-1.8,1.79c0,0.5,0.2,0.95,0.53,1.28c0.32,0.32,0.77,0.52,1.26,0.53
				c2.34,0.01,4.81,0.98,6.3,2.47c0,0,0,0,0,0l0.09,0.09c0,0,0,0,0,0c1.49,1.49,2.46,3.97,2.47,6.3c0,0.99,0.81,1.79,1.8,1.79
				C215.33,124.24,216.13,123.43,216.12,122.44z"/>
		</g>
	</g>
</g>
</svg>
