<?xml version="1.0" encoding="utf-8"?>
<!-- Generator: Adobe Illustrator 24.3.0, SVG Export Plug-In . SVG Version: 6.00 Build 0)  -->
<svg version="1.1" id="Layer_1" xmlns="http://www.w3.org/2000/svg" xmlns:xlink="http://www.w3.org/1999/xlink" x="0px" y="0px"
	 viewBox="0 0 300 300" style="enable-background:new 0 0 300 300;" xml:space="preserve">
<style type="text/css">
	.st0{opacity:0.4;}
	.st1{opacity:0.3;}
	.st2{fill:#163072;}
	.st3{opacity:0.2;fill:#163072;}
</style>
<g class="st0">
	<g class="st1">
		<g>
			<path class="st2" d="M253.09,80.96c0.02-6.19-2.26-11.89-6.42-16.05c-4.17-4.17-9.87-6.45-16.05-6.42c-0.99,0-1.79,0.81-1.79,1.8
				c0,0.99,0.81,1.79,1.8,1.79c5.22-0.02,10.02,1.89,13.5,5.37c3.48,3.48,5.39,8.28,5.37,13.5c0,0.5,0.2,0.95,0.53,1.28
				c0.32,0.32,0.77,0.52,1.26,0.53C252.28,82.75,253.08,81.95,253.09,80.96z"/>
		</g>
	</g>
	<g class="st1">
		<g>
			<path class="st2" d="M242.76,81.13c-0.02-3.29-1.37-6.67-3.52-8.83c0,0,0,0,0,0l-0.09-0.09c0,0,0,0,0,0
				c-2.16-2.16-5.54-3.51-8.83-3.52c-0.99,0-1.8,0.79-1.8,1.79c0,0.5,0.2,0.95,0.53,1.28c0.32,0.32,0.77,0.52,1.26,0.53
				c2.34,0.01,4.81,0.98,6.3,2.47c0,0,0,0,0,0l0.09,0.09c0,0,0,0,0,0c1.49,1.49,2.46,3.97,2.47,6.3c0,0.99,0.81,1.79,1.8,1.79
				C241.96,82.93,242.76,82.12,242.76,81.13z"/>
		</g>
	</g>
</g>
<path class="st3" d="M207.7,80.99c-2.62,0-5.12,0.54-7.45,1.42c7.95,3.01,13.62,10.64,13.62,19.65c0,8.99-5.65,16.5-13.58,19.47
	c2.31,0.87,4.79,1.41,7.41,1.41c11.64,0,21.07-9.24,21.07-20.88S219.34,80.99,207.7,80.99z"/>
<path class="st3" d="M200.25,151.03c0,0,7.55-0.69,7.55,8.38s0,77.42,0,77.42h13.55v-85.8H200.25z"/>
<path class="st3" d="M114.84,174.88c0,0,7.55-0.69,7.55,8.38s0,55.59,0,55.59h13.55v-63.97H114.84z"/>
<g>
	<g>
		<g>
			<path class="st2" d="M207.7,75.07c-14.97,0-26.8,12.01-26.8,26.98s12.01,26.8,26.8,26.8s26.98-12.01,26.98-26.98
				S222.67,75.07,207.7,75.07z M207.7,122.94c-11.64,0-21.07-9.43-21.07-21.07s9.61-20.88,21.07-20.88
				c11.64,0,21.07,9.43,21.07,21.07C228.77,113.7,219.34,122.94,207.7,122.94z"/>
		</g>
	</g>
	<g>
		<g>
			<path class="st2" d="M194.77,132.36c-0.92-1.29-2.96-1.48-4.25-0.55l-29.94,23.84l-38.62-16.08c-0.92-0.37-2.03-0.18-2.77,0.37
				l-41.4,29.57c-1.29,0.92-1.66,2.77-0.74,4.07c0.55,0.92,1.48,1.29,2.4,1.29c0.55,0,1.11-0.18,1.66-0.55l40.1-28.64l38.81,16.08
				c0.92,0.37,2.22,0.18,2.96-0.37l31.23-24.76C195.51,135.69,195.69,133.65,194.77,132.36z"/>
		</g>
	</g>
	<g>
		<g>
			<path class="st2" d="M238.01,233.63h-13.68v-85.56c0-1.66-1.29-2.96-2.96-2.96h-27.17c-1.66,0-2.96,1.29-2.96,2.96v85.56h-9.98
				v-56c0-1.66-1.29-2.96-2.96-2.96h-27.35c-1.66,0-2.96,1.29-2.96,2.96v56h-9.98V173.2c0-1.66-1.29-2.96-2.96-2.96h-27.17
				c-1.66,0-2.96,1.29-2.96,2.96v60.43h-9.98v-43.06c0-1.66-1.29-2.96-2.96-2.96H64.66c-1.66,0-2.96,1.29-2.96,2.96v43.06H47.85
				c-1.66,0-2.96,1.29-2.96,2.96c0,1.66,1.29,2.96,2.96,2.96h16.63h27.17h16.26h27.17h15.89h27.17h15.89h27.17h16.63
				c1.66,0,2.96-1.29,2.96-2.96C240.97,234.93,239.67,233.63,238.01,233.63z M88.87,233.63H67.62v-40.1h21.25V233.63z
				 M132.12,233.63h-21.25v-57.47h21.25V233.63z M175.18,233.63h-21.25V180.6h21.25V233.63z M218.42,233.63h-21.25v-82.61h21.25
				V233.63z"/>
		</g>
	</g>
	<g>
		<path class="st2" d="M216.82,106.43c0,3.82-2.94,6.1-6.98,6.57v3.95c0,0.42-0.34,0.76-0.76,0.76h-2.28
			c-0.42,0-0.76-0.34-0.76-0.76v-4.01c-2.65-0.38-5.2-1.46-7.17-2.96c-0.29-0.22-0.37-0.62-0.21-0.94l1.3-2.67
			c0.21-0.43,0.76-0.54,1.14-0.25c2.2,1.68,5.01,2.72,7.11,2.72c2.05,0,3.29-0.76,3.29-2.11c0-4.17-11.78-1.74-11.78-9.57
			c0-3.38,2.46-5.72,6.32-6.35v-3.83c0-0.42,0.34-0.76,0.76-0.76h2.28c0.42,0,0.76,0.34,0.76,0.76v3.7c2.3,0.23,4.52,0.96,6.28,1.98
			c0.34,0.19,0.45,0.62,0.29,0.98l-1.3,2.78c-0.18,0.4-0.66,0.54-1.04,0.34c-2.17-1.16-4.59-1.88-6.18-1.88
			c-1.67,0-2.81,0.6-2.81,1.8C205.06,100.74,216.85,98.47,216.82,106.43z"/>
	</g>
</g>
</svg>
